# xmcd
#
# Track frame offsets:
#	150
#	18364
#	36203
#	55693
#	71610
#	89283
#	112734
#	126815
#	148911
#	169036
#	191920
#
# Disc length: 2851 seconds
# Revision: 0
# Processed by: cddbd v1.5.2PL0 Copyright (c) Steve Scherf et al.
# Submitted via: dBpowerAMP V12.0
#
DISCID=940b210b
DTITLE=Sweetwater String Band - River Of Rhymes
DYEAR=2014
DGENRE=Folk
TTITLE0=The Weather She Breaks
TTITLE1=Empty Road
TTITLE2=Doc's Waltz
TTITLE3=They Turned The Mountains Upside Down
TTITLE4=Flood
TTITLE5=What Goes Up
TTITLE6=It'll Be OK
TTITLE7=Working Man's Blues
TTITLE8=Ruthless World
TTITLE9=Tossin' Turnin' 
TTITLE10=Million Miles
EXTD=
EXTT0=
EXTT1=
EXTT2=
EXTT3=
EXTT4=
EXTT5=
EXTT6=
EXTT7=
EXTT8=
EXTT9=
EXTT10=
PLAYORDER=
